<svg width="52" height="53" viewBox="0 0 52 53" fill="none" xmlns="http://www.w3.org/2000/svg">
  <g clip-path="url(#clip0_202_715)">
    <path d="M11.5605 8.24622H15.5605V12.2462H11.5605V8.24622Z" fill="#004AE2"/>
    <path d="M11.5605 16.2462H15.5605V20.2462H11.5605V16.2462Z" fill="#004AE2"/>
    <path d="M11.5605 24.2472H15.5605V28.2472H11.5605V24.2472Z" fill="#004AE2"/>
    <path d="M11.5605 32.2462H15.5605V36.2462H11.5605V32.2462Z" fill="#004AE2"/>
    <path d="M19.5635 8.24622H23.5635V12.2462H19.5635V8.24622Z" fill="#004AE2"/>
    <path d="M35.5605 24.2472H39.5606V28.2472H35.5605V24.2472Z" fill="#004AE2"/>
    <path d="M35.5605 16.2462H39.5606V20.2462H35.5605V16.2462Z" fill="#004AE2"/>
    <path d="M19.5635 16.2462H23.5635V20.2462H19.5635V16.2462Z" fill="#004AE2"/>
    <path d="M35.5605 32.2462H39.5606V36.2462H35.5605V32.2462Z" fill="#004AE2"/>
    <path d="M19.5635 24.2472H23.5635V28.2472H19.5635V24.2472Z" fill="#004AE2"/>
    <path d="M35.5605 40.247H39.5606V44.247H35.5605V40.247Z" fill="#004AE2"/>
    <path d="M19.5635 32.2462H23.5635V36.2462H19.5635V32.2462Z" fill="#004AE2"/>
    <path d="M48.4514 47.1805H46.4958V10.025C46.4958 9.50632 46.2898 9.00892 45.9231 8.64218C45.5563 8.27545 45.0589 8.06941 44.5403 8.06941H30.8514V2.20275C30.8514 1.6841 30.6454 1.1867 30.2786 0.819961C29.9119 0.453223 29.4145 0.247192 28.8958 0.247192H5.42917C4.91052 0.247192 4.41312 0.453223 4.04638 0.819961C3.67964 1.1867 3.47361 1.6841 3.47361 2.20275V47.1805H1.51806C0.99941 47.1805 0.502007 47.3866 0.135269 47.7533C-0.231469 48.12 -0.4375 48.6174 -0.4375 49.1361C-0.4375 49.6547 -0.231469 50.1521 0.135269 50.5189C0.502007 50.8856 0.99941 51.0916 1.51806 51.0916H48.4514C48.97 51.0916 49.4674 50.8856 49.8342 50.5189C50.2009 50.1521 50.4069 49.6547 50.4069 49.1361C50.4069 48.6174 50.2009 48.12 49.8342 47.7533C49.4674 47.3866 48.97 47.1805 48.4514 47.1805ZM7.38472 4.1583H26.9403V41.3139C26.9403 41.8325 27.1463 42.3299 27.513 42.6966C27.8798 43.0634 28.3772 43.2694 28.8958 43.2694C29.4145 43.2694 29.9119 43.0634 30.2786 42.6966C30.6454 42.3299 30.8514 41.8325 30.8514 41.3139V11.9805H42.5847V47.1805H23.0292V41.3139C23.0292 40.7952 22.8231 40.2978 22.4564 39.9311C22.0897 39.5643 21.5923 39.3583 21.0736 39.3583H13.2514C12.7327 39.3583 12.2353 39.5643 11.8686 39.9311C11.5019 40.2978 11.2958 40.7952 11.2958 41.3139V47.1805H7.38472V4.1583ZM19.1181 47.1805H15.2069V43.2694H19.1181V47.1805Z" fill="#004AE2"/>
  </g>
  <defs>
    <clipPath id="clip0_202_715">
      <rect width="52" height="52" fill="white" transform="translate(0 0.5)"/>
    </clipPath>
  </defs>
</svg>