<svg width="52" height="53" viewBox="0 0 52 53" fill="none" xmlns="http://www.w3.org/2000/svg">
  <g clip-path="url(#clip0_202_736)">
    <path d="M49.9688 23.8836V9.96552L37.8355 5.55308V23.8836H36.1021V3.08356H15.3021V23.8836H13.5688V12.5381H11.8355V5.91992H8.36881V0.247192H6.63548V5.91992H3.16881V12.5381H1.43548V23.8836H-0.297852V50.3563H15.3021V52.2472H36.1021V50.3563H51.7021V23.8836H49.9688ZM4.90215 7.81083H10.1021V12.5381H4.90215V7.81083ZM3.16881 14.429H11.8355V23.8836H3.16881V14.429ZM15.3021 48.4654H1.43548V25.7745H15.3021V48.4654ZM27.4355 50.3563H23.9688V40.9017H27.4355V50.3563ZM34.3688 50.3563H29.1688V39.0108H22.2355V50.3563H17.0355V4.97446H34.3688V50.3563ZM39.5688 8.17766L48.2355 11.3289V23.8836H46.5021V12.5381H44.7688V23.8836H43.0355V12.5381H41.3021V23.8836H39.5688V8.17766ZM44.7688 48.4654H41.3021V44.6836H44.7688V48.4654ZM49.9688 48.4654H46.5021V42.7926H39.5688V48.4654H36.1021V25.7745H49.9688V48.4654Z" fill="#004AE2"/>
    <path d="M13.5689 27.6623H3.16895V29.5532H13.5689V27.6623Z" fill="#004AE2"/>
    <path d="M13.5689 31.4445H3.16895V33.3354H13.5689V31.4445Z" fill="#004AE2"/>
    <path d="M13.5689 35.2275H3.16895V37.1184H13.5689V35.2275Z" fill="#004AE2"/>
    <path d="M13.5689 39.0079H3.16895V40.8988H13.5689V39.0079Z" fill="#004AE2"/>
    <path d="M19.6357 8.75586V14.4286H24.8357V8.75586H19.6357ZM23.1024 12.5377H21.3691V10.6468H23.1024V12.5377Z" fill="#004AE2"/>
    <path d="M26.5684 8.75586V14.4286H31.7684V8.75586H26.5684ZM30.035 12.5377H28.3017V10.6468H30.035V12.5377Z" fill="#004AE2"/>
    <path d="M19.6357 16.3185V21.9912H24.8357V16.3185H19.6357ZM23.1024 20.1003H21.3691V18.2094H23.1024V20.1003Z" fill="#004AE2"/>
    <path d="M26.5684 16.3185V21.9912H31.7684V16.3185H26.5684ZM30.035 20.1003H28.3017V18.2094H30.035V20.1003Z" fill="#004AE2"/>
    <path d="M19.6357 23.8819V29.5546H24.8357V23.8819H19.6357ZM23.1024 27.6637H21.3691V25.7728H23.1024V27.6637Z" fill="#004AE2"/>
    <path d="M26.5684 23.8819V29.5546H31.7684V23.8819H26.5684ZM30.035 27.6637H28.3017V25.7728H30.035V27.6637Z" fill="#004AE2"/>
    <path d="M19.6357 31.4445V37.1172H24.8357V31.4445H19.6357ZM23.1024 35.2263H21.3691V33.3354H23.1024V35.2263Z" fill="#004AE2"/>
    <path d="M26.5684 31.4445V37.1172H31.7684V31.4445H26.5684ZM30.035 35.2263H28.3017V33.3354H30.035V35.2263Z" fill="#004AE2"/>
    <path d="M39.5693 27.6623H37.8359V29.5532H39.5693V27.6623Z" fill="#004AE2"/>
    <path d="M44.7684 27.6623H41.3018V29.5532H44.7684V27.6623Z" fill="#004AE2"/>
    <path d="M48.2353 27.6623H46.502V29.5532H48.2353V27.6623Z" fill="#004AE2"/>
    <path d="M39.5693 31.4445H37.8359V33.3354H39.5693V31.4445Z" fill="#004AE2"/>
    <path d="M44.7684 31.4445H41.3018V33.3354H44.7684V31.4445Z" fill="#004AE2"/>
    <path d="M48.2353 31.4445H46.502V33.3354H48.2353V31.4445Z" fill="#004AE2"/>
    <path d="M39.5693 35.2275H37.8359V37.1184H39.5693V35.2275Z" fill="#004AE2"/>
    <path d="M44.7684 35.2275H41.3018V37.1184H44.7684V35.2275Z" fill="#004AE2"/>
    <path d="M48.2353 35.2275H46.502V37.1184H48.2353V35.2275Z" fill="#004AE2"/>
    <path d="M39.5693 39.0079H37.8359V40.8988H39.5693V39.0079Z" fill="#004AE2"/>
    <path d="M44.7684 39.0079H41.3018V40.8988H44.7684V39.0079Z" fill="#004AE2"/>
    <path d="M48.2353 39.0079H46.502V40.8988H48.2353V39.0079Z" fill="#004AE2"/>
  </g>
  <defs>
    <clipPath id="clip0_202_736">
      <rect width="52" height="52" fill="white" transform="translate(0 0.5)"/>
    </clipPath>
  </defs>
</svg>