<svg width="52" height="53" viewBox="0 0 52 53" fill="none" xmlns="http://www.w3.org/2000/svg">
  <g clip-path="url(#clip0_202_703)">
    <path d="M51.0505 19.214C49.9208 18.6293 48.2185 18.8126 47.1502 20.597C47.1472 20.6021 47.1441 20.6072 47.1412 20.6124L43.1946 27.4732C42.0545 26.8866 40.6168 27.1758 39.799 28.2255C39.5165 28.5883 38.5831 29.8309 37.5952 31.1466C37.0536 31.8677 36.5122 32.5887 36.094 33.143C35.7563 33.5908 35.8454 34.2277 36.2931 34.5654C36.741 34.9034 37.3776 34.8141 37.7153 34.3663C38.1341 33.8111 38.6766 33.0889 39.2191 32.3665C40.1584 31.1159 41.1296 29.8226 41.4012 29.4739C41.6329 29.1763 42.0778 29.1187 42.3729 29.3483C42.592 29.5186 42.5803 29.9358 42.3381 30.5882C41.4762 32.91 40.4052 35.2302 39.3997 36.9538C39.1171 37.4384 39.2806 38.0602 39.7651 38.3429C40.2497 38.6255 40.8714 38.4619 41.1539 37.9775C42.2157 36.1573 43.3412 33.7217 44.2421 31.2951C44.5545 30.4533 44.6113 29.7794 44.5201 29.2422L48.8968 21.6337C49.2505 21.0471 49.7176 20.8111 50.1172 21.0179C50.3916 21.1599 50.624 21.5249 50.378 22.0865C50.0817 22.7411 49.4439 24.3614 48.637 26.4112C47.569 29.1242 46.2401 32.5008 45.1168 35.1281C43.7485 38.329 43.2216 39.1021 40.779 41.4914L36.8865 45.2994C36.6296 45.5508 36.5246 45.9194 36.6105 46.2684L37.9666 51.7751C37.9683 51.7817 37.9699 51.7884 37.9717 51.7951C37.994 51.8782 37.9465 51.948 37.9217 51.9676H29.9846C29.2306 51.9676 29.0687 51.7526 28.9002 51.2962C26.9081 45.9001 28.9629 42.8029 30.9756 40.7075C31.3641 40.303 31.3511 39.6601 30.9467 39.2715C30.5423 38.8829 29.8995 38.8957 29.5109 39.3003C28.0279 40.8444 27.0466 42.421 26.5192 44.1083C26.3028 43.4204 26.0114 42.75 25.6436 42.0952C24.2633 39.6373 22.0197 37.8365 20.2169 36.3894C19.1686 35.548 18.1783 34.7533 17.6205 34.037C17.3492 33.6887 16.3787 32.3964 15.4402 31.1468C14.4521 29.831 13.5188 28.5884 13.2363 28.2256C12.4185 27.1759 10.9809 26.8866 9.84072 27.4733L5.89401 20.6124C5.89107 20.6072 5.88802 20.6021 5.88498 20.597C4.81663 18.8126 3.11425 18.6293 1.98457 19.214C0.84596 19.8034 0.0738197 21.2625 0.800976 22.9106C0.802398 22.9138 0.803819 22.9169 0.805241 22.9201C1.00092 23.3515 1.3943 24.3356 1.71518 25.1445C1.92202 25.6659 2.5125 25.921 3.03352 25.7141C3.55485 25.5072 3.80982 24.9168 3.60298 24.3955C3.10968 23.1516 2.82647 22.4602 2.6573 22.0866C2.41146 21.525 2.6438 21.16 2.91817 21.018C3.31795 20.8112 3.78495 21.0473 4.13873 21.6339L8.51527 29.2423C8.42408 29.7795 8.48085 30.4534 8.7934 31.2953C9.69409 33.7217 10.8197 36.1573 11.8815 37.9775C12.1642 38.4619 12.7859 38.6255 13.2703 38.3429C13.7546 38.0602 13.9182 37.4383 13.6356 36.9538C12.6301 35.2301 11.559 32.9099 10.6971 30.5882C10.455 29.9358 10.4433 29.5187 10.6626 29.3482C10.9574 29.1191 11.4025 29.1764 11.6341 29.4739C11.9056 29.8226 12.877 31.1159 13.8163 32.3666C14.8036 33.6812 15.7361 34.9228 16.0184 35.2852C16.7221 36.1887 17.8022 37.0558 18.9458 37.9736C22.6004 40.9069 26.7428 44.2318 24.135 51.2961C23.9664 51.7525 23.8045 51.9675 23.0506 51.9675H15.1135C15.0887 51.948 15.0412 51.8781 15.0634 51.795C15.0653 51.7884 15.067 51.7817 15.0686 51.775L16.4246 46.2683C16.5106 45.9193 16.4056 45.5508 16.1486 45.2993L12.2561 41.4913C9.81371 39.102 9.2867 38.3289 7.91839 35.1279C7.63722 34.4704 7.32132 33.7138 6.97911 32.8791C6.76638 32.3601 6.17326 32.1117 5.65437 32.3247C5.13548 32.5375 4.88731 33.1307 5.10004 33.6497C5.45088 34.5055 5.76201 35.2503 6.051 35.9264C7.52664 39.3784 8.19744 40.3622 10.8362 42.9434L14.3139 46.3457L13.0987 51.2806C12.9273 51.9351 13.0708 52.6458 13.4838 53.1843C13.8809 53.7018 14.4698 53.9987 15.0996 53.9987H23.0505C24.5655 53.9987 25.5434 53.3448 26.04 51.9995C26.2279 51.4907 26.3867 50.9914 26.5185 50.5006C26.6494 50.9935 26.8081 51.4932 26.995 51.9995C27.4916 53.3448 28.4696 53.9987 29.9845 53.9987H37.9354C38.5652 53.9987 39.1541 53.7018 39.5513 53.1843C39.9641 52.646 40.1078 51.9354 39.9365 51.281L38.7211 46.3458L42.1989 42.9435C44.8375 40.3622 45.5084 39.3784 46.9841 35.9265C48.1187 33.2722 49.4537 29.8805 50.5265 27.1551C51.2936 25.2067 51.9559 23.5239 52.2298 22.9198C52.2313 22.9166 52.2326 22.9135 52.234 22.9103C52.9615 21.2625 52.1892 19.8034 51.0505 19.214Z" fill="#004AE2"/>
    <path d="M5.3515 29.0213C5.3515 28.4604 4.89688 28.0057 4.33606 28.0057H4.33535C3.77452 28.0057 3.32031 28.4604 3.32031 29.0213C3.32031 29.5822 3.77523 30.0369 4.33606 30.0369C4.89688 30.0369 5.3515 29.5821 5.3515 29.0213Z" fill="#004AE2"/>
    <path d="M33.682 35.9805C33.1213 35.9805 32.667 36.4352 32.667 36.9961C32.667 37.557 33.1219 38.0117 33.6827 38.0117C34.2436 38.0117 34.6982 37.557 34.6982 36.9961C34.6982 36.4352 34.2435 35.9805 33.6827 35.9805H33.682Z" fill="#004AE2"/>
    <path d="M10.2725 18.8282H19.5316C19.4528 19.2536 19.4113 19.6902 19.4113 20.1343V21.8753C19.4113 22.4362 19.8659 22.8909 20.4268 22.8909H32.6121C33.1728 22.8909 33.6275 22.4362 33.6275 21.8753V20.1343C33.6275 19.6903 33.586 19.2537 33.5072 18.8282H42.7665C43.3272 18.8282 43.7819 18.3735 43.7819 17.8126V16.0716C43.7819 13.7049 42.6253 11.5428 40.7071 10.223C41.0033 9.62359 41.1707 8.94951 41.1707 8.23685V6.49586C41.1707 4.0158 39.1534 1.99805 36.6738 1.99805C34.1941 1.99805 32.1768 4.01569 32.1768 6.49586V8.23695C32.1768 8.95073 32.3447 9.62582 32.6418 10.226C32.0171 10.6594 31.4696 11.1874 31.0164 11.7847V10.5585C31.0164 8.07841 28.9991 6.06066 26.5194 6.06066C24.0397 6.06066 22.0224 8.07831 22.0224 10.5585V11.7849C21.5692 11.1875 21.0216 10.6594 20.3969 10.226C20.694 9.62582 20.8619 8.95084 20.8619 8.23695V6.49586C20.8619 4.0158 18.8446 1.99805 16.3649 1.99805C13.8852 1.99805 11.8679 4.01569 11.8679 6.49586V8.23695C11.8679 8.94962 12.0353 9.62369 12.3315 10.2231C10.4132 11.5427 9.25684 13.7041 9.25684 16.0717V17.8127C9.25704 18.3735 9.71165 18.8282 10.2725 18.8282ZM31.5966 20.8597H21.4422V20.1343C21.4422 18.4161 22.3453 16.7955 23.7826 15.8649C24.5413 16.4489 25.4902 16.7973 26.5194 16.7973C27.5492 16.7973 28.4986 16.4485 29.2574 15.8639C29.4768 16.0046 29.6827 16.1606 29.875 16.3294C29.9068 16.3617 29.9402 16.3922 29.9761 16.4201C30.5 16.9053 30.9122 17.4917 31.1898 18.1414C31.2036 18.1817 31.22 18.2207 31.2386 18.2586C31.4715 18.8442 31.5965 19.4782 31.5965 20.1342V20.8597H31.5966ZM41.751 16.0717V16.7971H32.7982C32.4959 16.2294 32.1166 15.7041 31.669 15.2357C31.9061 13.833 32.7358 12.58 33.9384 11.8034C34.6969 12.3867 35.6453 12.7347 36.6738 12.7347C37.7036 12.7347 38.6529 12.3859 39.4118 11.8013C40.8673 12.7348 41.751 14.3256 41.751 16.0717ZM34.2076 6.49586C34.2076 5.13583 35.3139 4.0293 36.6737 4.0293C38.0335 4.0293 39.1397 5.13583 39.1397 6.49586V8.23695C39.1397 9.59698 38.0334 10.7035 36.6737 10.7035C35.3138 10.7035 34.2076 9.59698 34.2076 8.23695V6.49586ZM24.0533 10.5585C24.0533 9.19845 25.1596 8.09192 26.5194 8.09192C27.8792 8.09192 28.9855 9.19845 28.9855 10.5585V12.2996C28.9855 13.6596 27.8792 14.7661 26.5194 14.7661C25.1596 14.7661 24.0533 13.6596 24.0533 12.2996V10.5585ZM13.899 6.49586C13.899 5.13583 15.0053 4.0293 16.3651 4.0293C17.7249 4.0293 18.8312 5.13583 18.8312 6.49586V8.23695C18.8312 9.59698 17.7249 10.7035 16.3651 10.7035C15.0053 10.7035 13.899 9.59698 13.899 8.23695V6.49586ZM11.2879 16.0717C11.2879 14.325 12.1716 12.7347 13.6271 11.8014C14.386 12.386 15.3354 12.7348 16.3651 12.7348C17.3937 12.7348 18.342 12.3868 19.1005 11.8035C20.3028 12.58 21.1326 13.8331 21.3699 15.2354C20.9221 15.7038 20.5426 16.2293 20.2403 16.7972H11.288V16.0717H11.2879Z" fill="#004AE2"/>
  </g>
  <defs>
    <clipPath id="clip0_202_703">
      <rect width="52" height="52" fill="white" transform="translate(0 0.5)"/>
    </clipPath>
  </defs>
</svg>