<svg width="105" height="24" viewBox="0 0 105 24" fill="none" xmlns="http://www.w3.org/2000/svg">
<path d="M0.707875 11.544C0.771875 10.488 1.02788 9.592 1.50788 8.888C1.95588 8.184 2.56388 7.64 3.29988 7.192C4.00388 6.776 4.83588 6.488 5.73188 6.296C6.62788 6.104 7.55588 6.008 8.48388 6.008C9.31588 6.008 10.1479 6.072 11.0119 6.2C11.8439 6.328 12.6439 6.552 13.3479 6.872C14.0519 7.224 14.6279 7.704 15.0759 8.312C15.5239 8.92 15.7479 9.72 15.7479 10.712V19.32C15.7479 20.088 15.7799 20.792 15.8759 21.464C15.9399 22.168 16.0999 22.68 16.3239 23H11.7159C11.6199 22.744 11.5559 22.488 11.4919 22.232C11.4279 21.976 11.3959 21.688 11.3959 21.4C10.6599 22.168 9.79588 22.68 8.83588 22.968C7.84388 23.288 6.85188 23.416 5.82788 23.416C5.02788 23.416 4.29188 23.32 3.61988 23.128C2.91588 22.936 2.33988 22.648 1.82788 22.232C1.31588 21.848 0.899875 21.336 0.611875 20.696C0.323875 20.088 0.195875 19.352 0.195875 18.488C0.195875 17.56 0.355875 16.792 0.675875 16.184C0.995875 15.576 1.44388 15.096 1.95588 14.712C2.46788 14.36 3.07588 14.104 3.74788 13.912C4.41988 13.72 5.09188 13.592 5.79588 13.464C6.46788 13.368 7.13988 13.272 7.81188 13.208C8.45188 13.144 9.05988 13.048 9.57188 12.92C10.0839 12.824 10.4679 12.632 10.7879 12.376C11.0759 12.12 11.2039 11.768 11.2039 11.288C11.2039 10.808 11.1079 10.424 10.9479 10.136C10.7879 9.848 10.5639 9.624 10.3079 9.464C10.0519 9.304 9.73188 9.208 9.37988 9.144C9.02788 9.08 8.64388 9.08 8.25988 9.048C7.36388 9.048 6.65988 9.24 6.14788 9.624C5.63588 10.008 5.31588 10.648 5.25188 11.544H0.707875ZM11.2039 14.904C11.0119 15.096 10.7559 15.224 10.4679 15.32C10.1799 15.416 9.85988 15.48 9.53988 15.544C9.21988 15.608 8.86788 15.672 8.51588 15.704C8.13188 15.768 7.77988 15.8 7.42788 15.864C7.07588 15.928 6.72388 16.024 6.40388 16.12C6.08388 16.248 5.79588 16.376 5.53988 16.568C5.28388 16.76 5.09188 16.984 4.96388 17.24C4.80388 17.528 4.73988 17.88 4.73988 18.296C4.73988 18.712 4.80388 19.064 4.96388 19.32C5.09188 19.608 5.31588 19.832 5.57188 19.992C5.82788 20.152 6.11588 20.248 6.46788 20.312C6.78788 20.376 7.13988 20.408 7.52388 20.408C8.41988 20.408 9.09188 20.28 9.60388 19.96C10.0839 19.672 10.4359 19.32 10.6919 18.904C10.9159 18.488 11.0439 18.072 11.1079 17.624C11.1719 17.208 11.1719 16.856 11.2039 16.6V14.904ZM19.2749 6.456H23.5949V9.528H23.6589C23.8509 9.048 24.1389 8.568 24.5229 8.12C24.8749 7.672 25.2909 7.32 25.7709 7C26.2189 6.68 26.7309 6.456 27.2749 6.264C27.7869 6.104 28.3629 6.04 28.9389 6.008C29.2269 6.008 29.5469 6.072 29.9309 6.168V10.392C29.7069 10.36 29.4509 10.328 29.1629 10.296C28.8429 10.264 28.5549 10.232 28.2989 10.232C27.4669 10.232 26.7629 10.392 26.1869 10.648C25.6109 10.936 25.1309 11.32 24.7789 11.8C24.4269 12.28 24.1709 12.824 24.0429 13.464C23.8829 14.104 23.8189 14.808 23.8189 15.544V23H19.2749V6.456ZM42.4139 12.28C42.0939 10.392 40.9739 9.432 39.0539 9.432C38.3179 9.432 37.7099 9.624 37.2299 9.944C36.7179 10.264 36.3339 10.712 36.0139 11.224C35.6939 11.736 35.5019 12.312 35.3739 12.952C35.2459 13.592 35.1819 14.2 35.1819 14.808C35.1819 15.416 35.2459 16.024 35.3739 16.632C35.5019 17.272 35.6939 17.816 35.9819 18.328C36.2699 18.84 36.6539 19.224 37.1659 19.544C37.6459 19.864 38.2539 20.024 38.9579 20.024C40.0459 20.024 40.8779 19.736 41.4539 19.128C42.0299 18.52 42.4139 17.688 42.5739 16.664H46.9579C46.6379 18.872 45.8059 20.536 44.3979 21.688C42.9899 22.84 41.1659 23.416 38.9899 23.416C37.7419 23.416 36.5899 23.224 35.5659 22.808C34.5419 22.392 33.6459 21.816 32.9419 21.048C32.2059 20.312 31.6299 19.416 31.2459 18.392C30.8299 17.368 30.6379 16.216 30.6379 14.968C30.6379 13.688 30.7979 12.504 31.1819 11.416C31.5659 10.328 32.1099 9.368 32.8459 8.568C33.5499 7.768 34.4459 7.128 35.5019 6.68C36.5259 6.232 37.7419 6.008 39.0859 6.008C40.0459 6.008 41.0059 6.136 41.9019 6.392C42.7979 6.648 43.6299 7.064 44.3339 7.576C45.0379 8.088 45.6459 8.76 46.0939 9.528C46.5419 10.296 46.7979 11.224 46.8619 12.28H42.4139ZM49.5249 0.151999H54.0689V8.76H54.1649C54.7409 7.8 55.4769 7.128 56.3729 6.68C57.2689 6.232 58.1329 6.008 58.9969 6.008C60.2129 6.008 61.2049 6.2 61.9729 6.52C62.7409 6.84 63.3809 7.32 63.8289 7.896C64.2769 8.472 64.5649 9.208 64.7569 10.04C64.9489 10.872 65.0449 11.8 65.0449 12.824V23H60.5009V13.656C60.5009 12.312 60.2769 11.288 59.8609 10.616C59.4129 9.944 58.6769 9.592 57.5889 9.592C56.3409 9.592 55.4449 9.976 54.9009 10.712C54.3249 11.448 54.0689 12.664 54.0689 14.328V23H49.5249V0.151999ZM73.1656 3.896H68.6216V0.151999H73.1656V3.896ZM68.6216 6.456H73.1656V23H68.6216V6.456ZM82.5036 6.456H85.8316V9.496H82.5036V17.688C82.5036 18.456 82.6316 18.968 82.8876 19.224C83.1436 19.48 83.6556 19.608 84.4236 19.608C84.6796 19.64 84.9036 19.608 85.1596 19.576C85.3836 19.576 85.6076 19.544 85.8316 19.48V23C85.4476 23.064 84.9996 23.128 84.5516 23.128C84.0716 23.16 83.6236 23.16 83.1756 23.16C82.4716 23.16 81.7996 23.128 81.1596 23.032C80.5196 22.936 79.9756 22.744 79.4956 22.456C79.0156 22.2 78.6316 21.784 78.3756 21.272C78.0876 20.76 77.9596 20.088 77.9596 19.256V9.496H75.2076V6.456H77.9596V1.496H82.5036V6.456ZM92.0256 14.744C92.0256 15.416 92.0896 16.056 92.2176 16.696C92.3456 17.336 92.5376 17.88 92.8576 18.392C93.1776 18.904 93.5936 19.288 94.1056 19.576C94.6176 19.896 95.2576 20.024 96.0256 20.024C96.7936 20.024 97.4336 19.896 97.9456 19.576C98.4576 19.288 98.8736 18.904 99.1936 18.392C99.5136 17.88 99.7056 17.336 99.8656 16.696C99.9936 16.056 100.058 15.416 100.058 14.744C100.058 14.104 99.9936 13.432 99.8656 12.792C99.7376 12.152 99.5136 11.608 99.1936 11.096C98.8736 10.616 98.4576 10.232 97.9456 9.912C97.4336 9.592 96.7936 9.464 96.0256 9.432C95.2576 9.432 94.6176 9.592 94.1056 9.912C93.5936 10.232 93.1776 10.616 92.8576 11.096C92.5376 11.608 92.3456 12.152 92.2176 12.792C92.0896 13.432 92.0256 14.104 92.0256 14.744ZM87.4816 14.744C87.4816 13.432 87.6736 12.248 88.0896 11.16C88.4736 10.072 89.0496 9.176 89.8176 8.408C90.5536 7.64 91.4496 7.064 92.5056 6.648C93.5296 6.232 94.7136 6.008 96.0256 6.008C97.3056 6.008 98.4896 6.232 99.5456 6.648C100.602 7.064 101.498 7.64 102.266 8.408C103.002 9.176 103.578 10.072 103.994 11.16C104.378 12.248 104.602 13.432 104.602 14.744C104.602 16.088 104.378 17.272 103.994 18.328C103.578 19.416 103.002 20.312 102.266 21.08C101.498 21.848 100.602 22.424 99.5456 22.808C98.4896 23.224 97.3056 23.416 96.0256 23.416C94.7136 23.416 93.5296 23.224 92.5056 22.808C91.4496 22.424 90.5536 21.848 89.8176 21.08C89.0496 20.312 88.4736 19.416 88.0896 18.328C87.6736 17.272 87.4816 16.088 87.4816 14.744Z" fill="#004AE2"/>
</svg>
