<svg width="20" height="20" viewBox="0 0 20 20" fill="none" xmlns="http://www.w3.org/2000/svg">
  <g clip-path="url(#clip0_202_669)">
    <path d="M4.07569 13.2947C6.04834 15.6527 8.42297 17.5093 11.1333 18.823C12.1652 19.3121 13.5452 19.8923 15.0827 19.9917C15.1781 19.9959 15.2692 20 15.3645 20C16.3965 20 17.2253 19.6436 17.9008 18.9101C17.9049 18.9059 17.9132 18.8976 17.9174 18.8893C18.1577 18.5993 18.4313 18.3382 18.7172 18.0605C18.912 17.874 19.1109 17.6792 19.3015 17.4803C20.1843 16.5603 20.1843 15.3916 19.2933 14.5006L16.8026 12.0099C16.3799 11.5707 15.8743 11.3386 15.3438 11.3386C14.8134 11.3386 14.3036 11.5707 13.8685 12.0058L12.3848 13.4894C12.2481 13.4107 12.1072 13.3402 11.9746 13.2739C11.8088 13.191 11.6555 13.1123 11.5187 13.0253C10.1677 12.1674 8.941 11.0485 7.76819 9.61044C7.17557 8.86034 6.77772 8.23042 6.50006 7.58807C6.88961 7.23581 7.25431 6.86697 7.60656 6.50642C7.73089 6.37795 7.85936 6.24948 7.98783 6.12101C8.43541 5.67344 8.67577 5.15541 8.67577 4.62909C8.67577 4.10278 8.43955 3.58475 7.98783 3.13717L6.75286 1.9022C6.60781 1.75715 6.47105 1.61625 6.33014 1.4712C6.05663 1.18939 5.77068 0.899296 5.48887 0.63821C5.06201 0.219644 4.56056 0 4.0301 0C3.50379 0 2.99819 0.219644 2.55476 0.642354L1.00482 2.19229C0.44121 2.75591 0.122105 3.4397 0.055798 4.23125C-0.0229422 5.22172 0.159403 6.27435 0.631844 7.54662C1.35708 9.51513 2.45116 11.3427 4.07569 13.2947ZM1.06699 4.31828C1.11672 3.76709 1.32807 3.30709 1.72592 2.90924L3.26757 1.36759C3.50793 1.13552 3.77316 1.01533 4.0301 1.01533C4.2829 1.01533 4.53984 1.13552 4.77606 1.37588C5.05373 1.63282 5.31481 1.9022 5.59662 2.18815C5.73752 2.3332 5.88257 2.47824 6.02762 2.62743L7.26259 3.86241C7.51954 4.11935 7.65215 4.38044 7.65215 4.63738C7.65215 4.89432 7.51954 5.15541 7.26259 5.41235C7.13412 5.54082 7.00565 5.67344 6.87718 5.80191C6.49177 6.19146 6.13122 6.5603 5.73338 6.91256C5.72509 6.92085 5.72094 6.92499 5.71266 6.93328C5.36869 7.27725 5.42256 7.60464 5.50545 7.85329C5.50959 7.86573 5.51373 7.87402 5.51788 7.88645C5.83698 8.65313 6.28041 9.38251 6.9725 10.2528C8.21576 11.7862 9.52534 12.9755 10.9675 13.8914C11.1457 14.0075 11.3364 14.0986 11.5146 14.1898C11.6803 14.2727 11.8337 14.3514 11.9704 14.4385C11.987 14.4467 11.9994 14.455 12.016 14.4633C12.1528 14.5338 12.2854 14.5669 12.418 14.5669C12.7495 14.5669 12.965 14.3556 13.0355 14.2851L14.5854 12.7352C14.8258 12.4948 15.0869 12.3663 15.3438 12.3663C15.6588 12.3663 15.9157 12.5611 16.0773 12.7352L18.5763 15.23C19.0736 15.7273 19.0695 16.2661 18.5639 16.7924C18.3898 16.9789 18.2075 17.1571 18.0127 17.3436C17.7226 17.6254 17.4201 17.9155 17.1466 18.2429C16.67 18.7567 16.1022 18.9971 15.3687 18.9971C15.2982 18.9971 15.2236 18.993 15.1532 18.9888C13.7939 18.9018 12.5299 18.3713 11.5809 17.9196C9.00317 16.6722 6.74042 14.9026 4.86309 12.6564C3.3173 10.7957 2.2771 9.06341 1.58916 7.2068C1.1623 6.06714 1.00068 5.15126 1.06699 4.31828Z" fill="#004AE2"/>
  </g>
  <defs>
    <clipPath id="clip0_202_669">
      <rect width="20" height="20" fill="white"/>
    </clipPath>
  </defs>
</svg>